<svg width="118.962" height="58.656" viewBox="0 0 31.475 15.519" xmlns="http://www.w3.org/2000/svg"><path d="M485.448 701.364s.01.009.018.01c-.01.01-.018-.01-.018-.01M485.227 701.54l-.074.07.093-.111zM485.34 701.296l-.15.21.113-.19c0 .01 0 .027.037-.02M488.698 701.47a.336.336 0 0 1 .045-.085.272.272 0 0 1-.045.085" style="fill:#231f20;fill-opacity:1;fill-rule:nonzero;stroke:none" transform="matrix(.96082 0 0 -.96082 -466.144 685.475)"/><path d="m487.026 701.374.037-.041c.01-.045-.012-.004-.037.04m-.502-1.737h4.228l-1.112 1.64a.8.8 0 0 1 .052-.1s-.037.016-.026-.008c-.052.012-.068.031-.098.011l.035-.034c.153-.249.003-.055-.01-.085l-.018.025c-.2.18.025-.086-.192.12l.11-.156c.22-.334-.203.197-.16.07l.075-.089c.053-.114-.376.454-.429.496-.025.03-.023.046-.03.068-.199.197.13-.203.113-.25-.083.11-.178.278-.224.3-.076.087-.039-.147-.039-.147s.134-.169.154-.233c-.013-.03-.309.32-.159.053a.797.797 0 0 0-.05.067l.073-.259s.014-.26-.32.234c-.026-.01-.038-.016-.063-.027l-.032.051c-.074.033-.012-.086.05-.205-.034.034-.057.08-.073.106-.143.1-.137.08-.033-.168l-.115.161c.046-.094-.279.251-.226.064-.012.018-.04.072-.04.072-.002 0-.502.445-.136-.139l.043-.144c.102-.046.161-.254.256-.35-.004-.035-.19.175-.177.205.01-.01.015-.017.025-.029-.194.305-.16.108-.3.316-.129-.015-.38.153-.519.166l.175-.237c-.022.006-.033.01-.055.014-.049.055-.14.185-.102.176-.108.135.022-.112.056-.163-.129.096-.163.276-.186.28l-.015-.017.025-.028c.044-.097.112-.199.065-.188-.057.048-.112.146-.128.156-.01.016-.02.024-.019.006l-.072.021.15-.187c.037-.093.11-.202.11-.202s-.294.117-.387.218c.057-.136.02-.134-.035-.117.038-.039.187-.249.132-.224-.274.424-.422.48-.422.48s-.08-.042.153-.324c-.055.035-.112.162-.205.264.04-.168-.239.11-.293.053.037-.057.112-.144.15-.229l-.242.285c.001-.028.04-.13.04-.13s.092-.122.092-.14c-.369.278-.753.294-.753.294s.091-.12.075-.125c.03-.026.095-.14.15-.218l-.223.215c.131-.215-.072-.015.058-.22v.037c.082-.15.93-1.369 1.073-1.552M486.45 697.514l-.017-.022zM485.448 697.576s.01-.01.018-.011c-.01-.01-.018.01-.018.01M485.227 697.399c-.03-.028-.045-.041-.074-.07l.093.112zM485.34 697.643l-.15-.21.113.19c0-.009 0-.027.037.02M488.698 697.47a.336.336 0 0 0 .045.085.272.272 0 0 0-.045-.085" style="fill:#231f20;fill-opacity:1;fill-rule:nonzero;stroke:none" transform="matrix(.96082 0 0 -.96082 -466.144 685.475)"/><path d="m487.063 697.607-.037-.041c.025.045.047.086.037.04m-1.612.145.001.037c-.13-.205.073-.005-.058-.22l.222.215c-.055-.077-.12-.191-.15-.218.016-.004-.075-.125-.074-.125 0 0 .383.016.752.294 0-.018-.093-.14-.093-.14s-.038-.102-.039-.13l.242.285c-.038-.085-.112-.172-.149-.23.053-.055.331.222.292.054.093.102.15.229.205.264-.233-.282-.152-.323-.152-.323s.147.056.421.479c.055.025-.094-.185-.13-.224.054.017.09.019.034-.117.092.1.386.219.386.219s-.073-.11-.11-.203l-.149-.186.071.02c0-.018.008-.01.02.006.015.01.07.108.127.156.047.01-.02-.091-.065-.188a.597.597 0 0 1-.024-.028l.014-.017c.023.005.057.186.186.282-.034-.052-.164-.3-.056-.164-.039-.01.053.12.103.175l.055.014a36.182 36.182 0 0 1-.176-.237c.14.013.39.182.52.166.138.208.105.01.3.316a.748.748 0 0 0-.026-.03c-.014.03.173.24.178.207-.095-.097-.155-.305-.257-.351l-.043-.144c-.365-.584.135-.14.135-.14l.041.073c-.053-.187.272.158.226.064l.116.16c-.104-.246-.11-.267.032-.167.016.026.04.072.074.106-.063-.12-.125-.237-.05-.205l.031.05.063-.026c.334.495.32.235.32.234l-.074-.26a.663.663 0 0 0 .051.068c-.15-.267.146.083.16.053a1.413 1.413 0 0 0-.155-.233s-.037-.234.04-.145c.046.02.14.189.223.299.016-.047-.31-.448-.113-.251.007.022.005.039.03.068.053.042.482.61.43.496l-.077-.088c-.042-.128.38.403.161.069l-.11-.155c.217.205-.008-.061.193.119l.016.025c.014-.03.164.164.011-.085l-.034-.034c.03-.02.045-.001.097.01-.01-.023.026-.007.026-.007s-.048-.081-.052-.1l1.112 1.64h-4.228c-.142-.183-.99-1.401-1.073-1.552" style="fill:#231f20;fill-opacity:1;fill-rule:nonzero;stroke:none" transform="matrix(.96082 0 0 -.96082 -466.144 685.475)"/><path d="M513.128 699.91a.825.825 0 0 1-.114-.214c-.653.02-1.305.04-1.957.05-.31.006-.618.01-.927.014-1.214.031-2.43.052-3.643.072l-2.284.024c-.762.01-1.523.008-2.285.006-1.523.003-3.046-.032-4.57-.043-.761-.008-1.523-.014-2.284-.032-.762-.018-1.524-.024-2.285-.05l-1.673-.05-.613.023c-.761.03-1.523.07-2.284.087a194.3 194.3 0 0 1-1.87.053.374.374 0 0 1-.203-.409s.136-.206-.452-.308c.84.007 1.68.017 2.52.034.762.01 1.525.04 2.286.06l.614.016 1.672-.066c.76-.035 1.523-.046 2.285-.069.762-.024 1.524-.037 2.286-.048 1.524-.019 3.047-.058 4.57-.055.763-.004 1.526 0 2.288.012.76.012 1.524.015 2.286.038 1.218.03 2.437.068 3.655.121.305.011.61.018.916.031.636.026 1.27.062 1.905.1.003-.026.004-.054.008-.077.017-.089.052-.152.052-.152-.105.47.022.724.1.831" style="fill:#231f20;fill-opacity:1;fill-rule:nonzero;stroke:none" transform="matrix(.96082 0 0 -.96082 -466.144 685.475)"/><path d="m512.817 699.065.008.022c.019-.116.052-.198.052-.198s.058.067.107.176c.021.043.039.095.056.15l.074-.214v.017l.02-.075.019-.054.022.031c.05.082.143.302.143.302-.003-.576.07-1.002 1.127-1.002 1.253 0 3.058.964 3.417 1.337.443.461-2.164 1.337-3.417 1.337-.911 0-1.09-.316-1.121-.772l-.004.011s-.058-.067-.107-.176a1.307 1.307 0 0 1-.074-.224l-.028.001c0 .067-.003.131-.012.186a.978.978 0 0 1-.055.213s-.057-.067-.106-.176c-.004-.007-.006-.016-.009-.023a.972.972 0 0 1-.052.2s-.027-.034-.059-.087c-.085-.148-.22-.504-.108-1.158 0 0 .058.067.107.176" style="fill:#231f20;fill-opacity:1;fill-rule:nonzero;stroke:none" transform="matrix(.96082 0 0 -.96082 -466.144 685.475)"/><path d="M14.74 10.348c1.243.091 2.715.194 4.414.308l-.086 1.402c-.217.022-1.374.035-3.472.035-.126 0-1.545.035-4.26.103 0-1.198.098-1.86.292-1.984 1.06-.73 2.109-1.716 3.147-2.96 1.243-1.494 1.864-2.737 1.864-3.729a4.1 4.1 0 0 0-.17-1.129c-.149-.524-.348-.821-.6-.89a2.224 2.224 0 0 0-.359-.016c-.798 0-1.762.194-2.89.582L12.037.975c.296-.262.872-.496 1.728-.701C14.519.09 15.146 0 15.648 0c.33 0 .98.062 1.95.188.558.308.957.661 1.197 1.06.24.4.359.913.359 1.54 0 .422-.051.913-.154 1.471-.114.65-.256 1.123-.427 1.42-.445.764-1.044 1.574-1.796 2.43-.674.752-1.352 1.499-2.036 2.24" style="fill:#231f20;fill-opacity:1;fill-rule:nonzero;stroke:none;stroke-width:.960818"/></svg>