<svg width="46.426" height="60" viewBox="0 0 12.284 15.875" xmlns="http://www.w3.org/2000/svg"><path d="M7.634 14.31H4.65V2.675h2.985z" style="fill:#c0a72f;fill-opacity:1;fill-rule:nonzero;stroke:none;stroke-width:.503026"/><path d="M2.053 15.674c-.1 0-.17-.035-.212-.105-.233-.394-.048-1.4.198-2.575.062-.293.132-.625.129-.698-.038-.172-.717-.772-1.082-1.094-.652-.577-.864-.78-.883-.96-.014-.136.838-1.748 2.533-4.79C3.51 4.057 5.36.767 5.77.313c.033-.036.102-.112.209-.112.14.009.273.017 3.202 4.889 1.929 3.206 2.905 4.933 2.9 5.134-.008.415-.575 1.012-1.956 2.062l-.117.088c.021.121.086.371.145.596.283 1.086.52 2.098.298 2.57l-.055.115-.138.001c-.108 0-.67-.08-1.922-.263-1.01-.147-2.265-.33-2.421-.33-.071.004-.642.102-1.193.197-1.363.234-2.425.413-2.669.413m3.157-1.789c.12.003.27.006.45.006h.053c.341 0 .622-.006.85-.016-.064-.585-.094-1.844-.09-3.825.005-3.009.1-5.225.283-6.594h-.235c-.446 0-.846.01-1.191.033.044.824.065 1.809.064 2.93-.007 4.144-.067 6.599-.184 7.467" style="fill:#000;fill-opacity:1;fill-rule:nonzero;stroke:none;stroke-width:.503026"/><path d="M5.979.403c.205.013 5.908 9.49 5.902 9.818-.012.597-2.044 2.007-2.075 2.06-.084.147.777 2.507.462 3.174l-.01.001c-.229 0-4.027-.593-4.343-.593h-.003c-.164.001-3.461.61-3.858.61-.024 0-.037-.001-.04-.007-.307-.52.377-2.892.355-3.185-.032-.414-1.938-1.793-1.965-2.06C.388 10.063 5.689.401 5.979.401m-.267 13.69c.456 0 .816-.01 1.082-.03-.084-.416-.124-1.753-.12-4.012.006-3.187.11-5.45.314-6.793-.162-.003-.318-.003-.468-.003-.542 0-1.01.016-1.402.048.052.864.077 1.903.075 3.117-.007 4.572-.081 7.124-.221 7.656.139.011.368.017.688.017h.052M5.98 0c-.196 0-.317.135-.358.18-.408.451-2.093 3.435-3.06 5.173A254.063 254.063 0 0 0 .813 8.54c-.827 1.542-.825 1.569-.81 1.72.027.263.25.471.95 1.09.315.278.886.783 1.01.986-.016.118-.072.39-.12.615-.264 1.261-.445 2.262-.174 2.719a.421.421 0 0 0 .384.204c.26 0 1.286-.173 2.706-.416.518-.089 1.053-.181 1.166-.194.194.01 1.455.193 2.379.328 1.41.206 1.837.265 1.954.265a.41.41 0 0 0 .375-.232c.251-.533.02-1.54-.285-2.706-.04-.155-.087-.334-.116-.462a.091.091 0 0 0 .014-.011c1.475-1.121 2.027-1.722 2.037-2.218.003-.135.007-.36-2.929-5.243A202.241 202.241 0 0 0 7.33 1.682C6.283.019 6.246.016 6.005.002L5.992 0zm-.438 3.678c.293-.015.62-.022.979-.022h.009c-.166 1.39-.253 3.537-.257 6.393-.003 2.108.031 3.116.072 3.633-.184.006-.394.009-.631.009H5.66l-.225-.001c.078-.778.152-2.61.16-7.269A57.045 57.045 0 0 0 5.54 3.68" style="fill:#c0a731;fill-opacity:1;fill-rule:nonzero;stroke:none;stroke-width:.503026"/></svg>