<svg width="118.962" height="28.121" viewBox="0 0 31.475 7.44" xmlns="http://www.w3.org/2000/svg"><path d="M1.242 3.595c-.01-.003-.015-.003-.029-.005.014.002.019.002.03.005M.404 4.335s.003-.013.01-.02c-.018 0-.01.02-.01.02M.107 4.367 0 4.372l.149.01c-.016-.005-.026-.008-.042-.015M.352 4.462c-.101-.019-.154-.026-.255-.045.086.024.128.034.211.055-.005-.005-.015-.018.044-.01M3.265 2.161c.02.016.05.031.084.042a.255.255 0 0 0-.084-.042" style="fill:#231f20;fill-opacity:1;fill-rule:nonzero;stroke:none;stroke-width:2.6081"/><path d="M2.324 4.893A23.044 23.044 0 0 1 5.99 2.629a19.22 19.22 0 0 0-1.748-.83c.013.014.094.055.094.055s-.041.008-.02.02c-.055.016-.079.011-.097.042.018.005.029.005.047.01.258.126.029.045.031.076a.112.112 0 0 0-.029-.01c-.27-.045.065.055-.234.002.07.03.104.042.174.07.36.157-.281-.054-.182.03.044.013.068.018.112.03.104.066-.569-.164-.636-.169-.04-.01-.048-.024-.063-.04-.282-.046.219.095.227.142-.13-.042-.303-.125-.355-.118-.115-.028.034.141.034.141s.209.06.258.1c.003.033-.446-.084-.175.049-.028-.008-.057-.019-.08-.026.054.044.198.167.198.167-.003 0 .143.195-.415-.005l-.044.057a1.654 1.654 0 0 0-.055-.02c-.084.015.031.075.149.133-.047-.006-.092-.031-.12-.042-.183.005-.165.016.054.154-.073-.026-.112-.036-.187-.06.09.045-.386-.034-.24.084-.021-.008-.076-.034-.076-.034s-.689-.045-.05.19l.115.089c.115-.026.277.104.412.125.014.029-.263-.026-.266-.06.016.005.024.005.036.01-.33-.125-.2.01-.435-.068-.11.092-.425.118-.558.198.115.026.172.042.287.07a.448.448 0 0 0-.058.024c-.073-.01-.227-.052-.188-.07-.172-.034.081.073.138.091-.166.009-.294-.11-.32-.099 0 .01 0 .016-.003.024.016.003.024.005.036.005.094.048.212.084.162.105-.076 0-.18-.042-.198-.04-.02-.005-.031-.005-.024.009-.029.013-.044.018-.073.03.094.019.14.03.237.048.084.047.209.086.209.086s-.326.096-.464.08c.125.066.091.09.034.113.054.003.302.068.24.083-.475-.146-.64-.083-.64-.083s-.049.08.316.14c-.068.011-.19-.049-.33-.062.13.099-.272.08-.288.16.065.018.18.03.264.067-.152-.018-.227-.026-.379-.047.019.021.113.074.113.074s.15.023.161.039c-.482.041-.826.31-.826.31s.15.024.138.036c.041-.002.167.034.26.055h-.32c.242.063-.053.063.182.117l-.02-.025c.159.052 1.588.383 1.81.433m-.54-1.638c.023.002.034.002.057.008.034.026-.01.01-.057-.008M3.472 6.535v.026zM2.689 7.083s.013 0 .02-.003c-.002.014-.02.003-.02.003M2.634 7.347c-.005.039-.008.057-.01.093v-.135a.248.248 0 0 0 .01.041M2.568 7.1c.008.097.01.147.019.243-.014-.08-.019-.122-.034-.206.005.009.015.021.015-.036M5.235 5.379c-.005-.024-.008-.055-.005-.092.005.024.008.05.005.092" style="fill:#231f20;fill-opacity:1;fill-rule:nonzero;stroke:none;stroke-width:2.6081"/><path d="M2.585 6.954c-.01-.01-.013-.016-.02-.026.026.23.054-.041.088.193l.034-.29c.008.09.03.212.021.248.016-.005.02.138.02.138s.27-.245.387-.667c.01.013.01.156.01.156s.031.1.047.12c.005-.14.01-.211.015-.354.02.086.016.195.02.258.074.01.123-.358.189-.209.013-.13-.016-.258.008-.318-.019.35.068.331.068.331s.075-.125.052-.602c.03-.05.031.195.024.245.034-.045.06-.065.094.068.013-.128.177-.38.177-.38s.003.124.026.216l-.013.224c.018-.02.026-.031.044-.055.008.016.01.003.01-.015.009-.016-.005-.123.014-.19.03-.035.034.08.052.18 0 .013 0 .02-.002.035.008 0 .013.003.02.006.014-.019-.06-.175-.01-.319 0 .058.034.319.044.157-.023.029-.023-.123-.015-.193.015-.015.02-.024.036-.04-.005.113-.005.168-.008.28.1-.086.203-.352.313-.41 0-.234.073-.062.073-.406l-.005.036c-.026-.016.015-.28.036-.256-.029.128.031.324-.024.412l.04.136c.018.65.18.04.18.04s-.006-.059-.006-.08c.055.176.133-.263.144-.166l.013-.185c.04.248.044.268.11.117 0-.029-.006-.078.005-.122.01.125.02.253.063.187V5.4c.023-.006.036-.008.063-.01.018-.561.14-.348.14-.348l.068.246c0-.024.003-.05.009-.079.01.29.075-.135.101-.12.016.063-.01.264-.01.264s.086.206.104.099c.026-.04.019-.222.031-.35.036.032-.03.512.031.259-.005-.021-.015-.037-.01-.07.024-.06.102-.726.112-.608-.008.044-.01.065-.02.11.025.122.125-.51.099-.134-.009.073-.01.107-.019.178.084-.266.02.054.104-.186v-.028c.026.018.06-.212.05.065l-.013.044c.034.003.036-.02.075-.055 0 .026.024-.005.024-.005s-.003.089.005.107c.06-.743.104-1.119.23-1.87a23.026 23.026 0 0 0-3.62 2.235c-.01.227.04 1.651.073 1.81m1.301-.834-.005.052c-.005-.05-.01-.091.005-.052M26.847 3.337c.005-.003.01-.01.016-.014-.034.105-.04.188-.04.188s.079-.031.17-.096c.04-.026.076-.063.115-.1l-.031.212.008-.014c-.008.03-.01.053-.016.07-.002.021-.005.032-.008.055 0 0 .014-.005.034-.015.081-.044.261-.183.261-.183-.266.475-.388.84.475 1.375 1.027.634 2.991 1.02 3.505.993.634-.03-1.035-2.433-2.18-3.14-.83-.513-1.15-.328-1.385.031l.002-.01s-.083.026-.177.091c-.055.04-.112.092-.167.152l-.026-.016a.939.939 0 0 0 .12-.363s-.083.026-.177.094l-.015.016a.875.875 0 0 0 .039-.19s-.04.013-.091.041c-.141.08-.415.32-.6.92 0 0 .078-.03.17-.099" style="fill:#231f20;fill-opacity:1;fill-rule:nonzero;stroke:none;stroke-width:2.6081"/><path d="m27.497 2.78-.07.031a.933.933 0 0 0-.128.092A20.392 20.392 0 0 0 24.68 1.64 22.662 22.662 0 0 0 21.206.542a19.14 19.14 0 0 0-2.24-.386c-.751-.096-1.51-.14-2.267-.154a22.655 22.655 0 0 0-4.517.405 21.03 21.03 0 0 0-2.212.54c-.727.221-1.452.469-2.154.772a19.7 19.7 0 0 0-1.526.709c-.227.1-.339.151-.566.256a22 22 0 0 0-2.063 1.09c-.545.33-1.087.69-1.611 1.074-.01.016-.139.245.068.436 0 0 .224.063-.183.516a24.06 24.06 0 0 1 2.047-1.523A24.891 24.891 0 0 1 5.931 3.09c.214-.114.32-.172.537-.281.608-.264.918-.384 1.539-.6.706-.24 1.416-.467 2.133-.644A24.212 24.212 0 0 1 16.686.81c.728.013 1.464.06 2.194.13a25.7 25.7 0 0 1 2.178.319c1.155.213 2.313.516 3.44.9.281.096.563.205.845.312.584.225 1.168.465 1.742.73-.008.024-.02.048-.026.07-.024.082-.024.15-.024.15.118-.439.462-.642.462-.642" style="fill:#231f20;fill-opacity:1;fill-rule:nonzero;stroke:none;stroke-width:2.6081"/></svg>