<svg width="60" height="3.11" viewBox="0 0 15.875 0.823" xmlns="http://www.w3.org/2000/svg"><path d="M.01.685C-.003.683.002.723 0 .73.023.72.01.675.01.685M.235.593.232.61.265.57zM.446.594C.426.525.369.606.332.58L.326.564.31.62C.355.61.414.574.446.593M.558.743C.551.716.583.718.532.733.535.735.535.738.537.74l.022.002M.537.741c-.022.002.015.023 0 0M.64.726.61.751c.006.017.032.02.022.031C.662.77.657.753.64.727M.667.676l-.015.01c.003.007.006.01.015-.01M.62.707l.032-.02C.647.676.647.655.637.696.64.675.634.694.619.709M.601.697C.585.682.564.672.594.649.537.659.546.706.6.697M.457.523.435.503l-.02.025C.426.516.459.545.458.526M.821.762C.823.747.811.722.81.704L.787.72C.8.73.82.74.821.76M.809.704.841.679C.812.677.807.689.81.704M.672.6.62.651.683.598zM.944.763.926.797l.032-.05zM1.026.758c-.014.028.018.047.005.065.022-.005.04-.03.058-.051-.018.012-.037.01-.063-.015M1.117.74c-.01.007-.018.02-.029.031a.076.076 0 0 0 .03-.031M.896.686C.9.696.903.718.921.728L.91.687H.896M.909.685v.001M.893.686h.003C.894.684.894.68.893.686M.757.637C.776.612.815.589.777.554.764.582.785.602.757.637M.877.634.843.624c0 .013.006.027-.002.039zM.877.634.89.636.894.62zM1.058.701c.015-.017.03-.02.05-.022a.183.183 0 0 0-.06-.012c-.003.012-.01.036.01.035M.986.69.989.688C.986.686.986.683.986.69M1.288.68a.04.04 0 0 0-.003-.008V.68z" style="fill:#654e22;fill-opacity:1;fill-rule:nonzero;stroke:none;stroke-width:.869594"/><path d="M1.045.659c-.014-.007-.023.002-.032.015A.085.085 0 0 1 1.05.667c0-.005 0-.01-.003-.007M1.167.72C1.16.71 1.151.707 1.142.7c.007.012.023.033.025.022M.994.699.99.701c.005.01.005.005.003-.002" style="fill:#654e22;fill-opacity:1;fill-rule:nonzero;stroke:none;stroke-width:.869594"/><path d="M.994.699c.008-.005.014-.017.02-.025a.05.05 0 0 0-.025.015A.022.022 0 0 1 .994.7M1.342.415c-.002.038-.04.074-.074.032-.033.028-.012.155.017.224 0-.017 0-.031.035-.054-.011-.02-.075-.049-.046-.083.044-.02.036.014.058.034-.018-.048.057-.07.047-.14l-.04.025c0-.012.014-.028.004-.038M1.22.668l-.013.005c.015.007.027.022.047.052a.068.068 0 0 0 .03-.046L1.217.674zM1.144.673c.01-.042.044-.06.023-.104-.04.002-.027.034-.053.053.066-.01-.018.022.03.047a.08.08 0 0 1-.037.01.217.217 0 0 1 .035.02L1.14.695C1.137.69 1.135.689 1.14.69c0-.006.003-.01.003-.016.02.01.004.01-.003.015v.005l.066-.021c-.014-.005-.031-.005-.062 0M.812.464c.002.002.002.007.002.01C.82.47.82.464.812.464" style="fill:#654e22;fill-opacity:1;fill-rule:nonzero;stroke:none;stroke-width:.869594"/><path d="M.84.49C.834.493.83.511.814.506.8.494.815.487.815.473.804.485.78.503.81.523L.816.518C.843.533.878.584.872.59A.403.403 0 0 0 .84.49M.994.57l.054-.02L1.02.515l.002.023C.992.527.997.554.994.57M1.294.7l-.007.044.032-.062zM1.363.733l.02-.022-.017-.015zM5.404.221l.016-.01c-.008.002-.013.007-.016.01M5.286.219l-.002.02c.005-.01.006-.018.002-.02M3.123.69c.023.036.05.092.047.048L3.163.697c-.016.007-.03.002-.04-.005M4.327.44C4.324.44 4.322.43 4.32.429l-.016.04.023-.027M4.343.267l.03.027a.112.112 0 0 0-.03-.027M6.043.177l.02-.043c-.03 0-.017.022-.02.043M2.099.68c.02.017.036.024.05.024-.024-.024-.044-.06-.05-.025M5.357.665A.03.03 0 0 0 5.371.64c-.01.007-.015.015-.014.025M2.208.704C2.205.7 2.201.7 2.198.694a.084.084 0 0 1-.048.01c.017.018.038.03.058 0M8.363.211l.005.005C8.37.211 8.366.211 8.363.211M9.04.634c-.008.002-.018.002-.029.002.005.002.014.002.028-.002M1.654.713c-.015.002-.003.005 0 0M1.58.548a.032.032 0 0 0 .006-.02c-.002.01-.004.017-.006.02M2.36.444c-.005-.007-.003-.007 0 0M1.63.694a.06.06 0 0 0 .02.012C1.647.704 1.641.7 1.63.694M1.634.714C1.629.712 1.624.712 1.62.712c-.002.007 0 .01.013.002M1.675.71c-.009.001-.017 0-.025-.004a.008.008 0 0 1 .004.007l.02-.002M7.12.323l.003.002c.015-.017.009-.014-.003-.002M3.518.256s0 .002-.002.002l.002.002zM3.572.225C3.55.277 3.536.27 3.52.26l.018.12z" style="fill:#654e22;fill-opacity:1;fill-rule:nonzero;stroke:none;stroke-width:.869594"/><path d="M5.684.21 5.646.171c.046-.062.079-.041.043-.094-.005.131-.149.014-.154.145L5.51.195c.007 0 .009-.007.015-.005-.05-.063-.036.095-.1.076-.021-.01-.037-.029-.022-.045l-.049.032c-.014-.002-.01-.025.003-.022l-.075.01V.236a.47.47 0 0 1-.046.066c-.019-.017.01-.015.005-.03l-.04.032c-.018-.034.017-.067.044-.062-.038-.131-.034.032-.117-.044l.04-.018c-.026-.074-.057-.046-.1-.093.01.025.088.117.043.15-.013-.01-.03-.015-.054.012 0-.046-.025-.034-.053-.032l.002-.062c-.032.018-.03.05-.049.078-.036-.007-.043-.055-.051-.095-.058-.01.039.077-.028.088C4.83.2 4.796.228 4.74.266c-.034-.023.005-.038-.006-.057l-.03.05C4.697.257 4.7.242 4.701.234c-.025.02-.003.062-.042.079-.01.068-.08-.1-.129-.023-.01-.017.006-.038.003-.061-.067.051-.057.037-.112.105l-.046-.04c.034.045-.01.1-.048.145.012.023.023.043.03.052l-.061.033c-.008-.01-.002-.032.008-.057l-.011.015c-.022-.025-.01-.058.005-.093a.509.509 0 0 1 .022.038.269.269 0 0 0 .026-.115.058.058 0 0 1-.02.017.044.044 0 0 0 .005-.025c-.002-.005-.008.007-.019.025L4.3.259l-.004.028-.079-.043c-.057.07-.107.17-.197.2.023-.05.005-.083.006-.143.024.063.07-.026.116-.015C4.117.281 4.122.251 4.13.241l-.084.057c.002-.048-.018-.036-.04-.056.017.096-.062.064-.096.094-.002-.032.006-.066.048-.058-.046-.073-.06.113-.105.052.01 0 .016.005.02-.013-.024.03-.082.005-.068-.022h.01c-.067-.013-.206-.001-.215.08 0-.01.008-.098.013-.115l-.12.276c.01-.07-.03-.238.025-.278-.016-.01-.036-.022-.07.002.012.01.027.102.013.108-.041-.079-.03-.042-.08-.11.017.016-.002.127-.027.123.004-.017-.002-.11.008-.12l-.065.107c.016-.02.003-.09-.012-.121.007.02-.056-.002-.073.01l.028.025c-.073-.018-.072.152-.144.147.008-.023.021-.139-.016-.153-.017.056-.074.268-.139.31L2.928.556l-.05.036a2.17 2.17 0 0 1 .164-.327C3.015.238 3.034.226 2.995.229c-.015-.03.021-.045.033-.047l-.095-.02c.004.066-.072.066-.069.12l.104-.068c.004.065-.06.184-.127.173-.018-.027.013-.116.01-.138-.008.022-.063.043-.07.027l.03-.034c-.038-.025-.062.086-.107.025-.016-.005-.047-.084-.05-.045.026.074.031.303.014.358a.561.561 0 0 1-.1-.107c-.025-.057.04-.138.018-.188a.106.106 0 0 1-.022.047C2.55.317 2.571.277 2.535.285 2.53.351 2.465.28 2.52.34c-.035.02-.037-.012-.077-.01.013.043-.037.145-.072.164.002-.018-.006-.039-.01-.05C2.29.44 2.252.41 2.186.41 2.179.392 2.147.373 2.16.345 2.15.357 2.14.379 2.12.38c-.04-.056.046-.01.016-.077-.002.038-.053.053-.082.077.008.06.067.013.096-.012 0 .082-.05.167-.12.204-.055.02-.023-.053-.033-.04-.103-.015-.089.141-.175.083-.034-.052 0-.103-.008-.14.045-.02.068.032.099.03L1.876.481c.015-.018.045-.03.061-.015-.028-.047-.175-.01-.254-.052-.015.017-.04.035-.027.056L1.68.463c.023.042-.047.058-.015.077-.034.03-.072.076-.12.053l-.008-.06c0 .018.03.035.044.018-.02.026-.073-.08-.095-.002l.033.04c-.034.03-.076.093-.118.075.02.058.01-.007.04.062-.026-.086.108.002.066-.086.031.079.053.034.094.1 0-.02-.014-.036.02-.027L1.63.696c.002 0 .002 0 .002.002 0 0 0-.002-.002-.002.001-.002.002-.002 0 0a.082.082 0 0 1-.018-.03c.017-.044.074-.043.093-.067.021.01-.009.022.002.044l.029-.035c.003.043.057.072.006.097l.045.002c.026.025.063.034.084.015.022.01.054-.049.035-.015l.07-.026.001.01c.069.005.143-.071.222.007.023-.012.047-.025.086-.012l.008.038c.03-.012.089.038.103-.002.031.1.144.022.197.04l.002-.049a.264.264 0 0 0 .116-.031L2.708.638c.038-.035.1.032.16.027-.004.017-.02.012-.03.002.074.098.154-.071.22 0 .017-.016.03-.01.04 0L3.095.67h.007l.023.025c-.007-.01-.013-.02-.02-.025a.108.108 0 0 0 .052-.017l.008.046c.002 0 .003 0 .005-.002.018.018.014-.022.004-.056A.08.08 0 0 0 3.2.612c.016.076.05-.024.072.055.012-.038.095-.029.105-.111 0 .012.006.014-.005.017.022.01.043.02.061-.005l.01.059.046-.08c.028.037.039.057.012.103.067-.07.054-.026.111-.096L3.61.592c.02 0 .053-.052.065-.02.045.073.226.01.343.078-.022-.112.055.05.06-.037.006.027.023.042.004.066.06-.027.09.041.131-.032.007.026-.013.038-.006.055.005-.005.019-.025.025-.007.006.015-.009.022-.018.034.061-.005.067-.086.072-.164.031.037.046.032.068-.02.01.026.03.052-.01.062.023.002.132.036.134-.025.007.014.03.005.036-.002.047.002.052.01.099.002l-.013-.01c.018-.075.039-.018.077-.027v.007c.086.054.037-.026.123.036L4.794.542c.008-.1.076.058.126.02L4.902.535c.027-.034.076.136.103.148.007.01-.009.015-.017.02.072.058.01-.061.062-.076.01.033-.012.083.024.09.018.026.104-.107.153-.044-.01-.025-.022-.05.003-.07.038-.01.102.096.137.018a.04.04 0 0 1 .007.02c.029-.02.094-.035.111-.077.027.16.181-.078.18.07l.09-.008-.003.015c.058.01.078-.026.098-.06.013.01.003.024.002.03.084.03.092.025.162-.05l.007.049c.02-.028.12.074.203.02-.001.004-.003.014-.01.02.092-.057.22.132.255-.043l.06-.042C6.452.552 6.542.489 6.51.46c.03-.01.08.053.041.062l-.005-.01c-.014.09.098.032.095.094.155-.005.306.045.45.05l-.016-.07.05.001c.014.018.019.056-.018.053.02.04.06-.034.062-.05.07.03-.028.083-.006.085l.03-.005-.007-.007c.023-.03.026-.06.07-.056.026.014.013.043.025.047-.001.005.003.007.016.002L7.36.66 7.334.605c.028-.028.06.002.03-.061.043.097.238.036.264.065.04-.04.079-.039.127-.034C7.743.562 7.736.5 7.778.508c-.016.13.076.056.11.15-.03-.063.119-.016.07-.103.036.01.004.047.03.078.082-.05.182.033.285.014 0-.017-.017-.042.006-.067l.054.085c.02-.01.019-.098.055-.04-.005-.014-.013-.035 0-.041.2.083.41-.068.614.088-.028-.033-.01-.037.011-.038C9 .627 9.013.593 9.011.57l.086.063c.015-.063.09-.005.1-.065l-.027.01c.035-.071-.05-.16-.046-.252-.04.082-.106-.121-.172-.002-.014-.02.013-.03.005-.051-.016.039-.036.047-.074.03l.004-.01c-.105.01-.15-.03-.268-.057l.01.047C8.601.278 8.597.263 8.584.25c-.03.069.072.005.045.08C8.597.238 8.452.33 8.428.224c-.038 0 .012.053-.027.052l-.01-.028-.01.037C8.354.28 8.341.243 8.34.218c.006.002.019-.007.025-.01-.033-.034-.093.013-.106.001l.038.017c-.106.027-.237-.01-.34.048l.009.022c-.079.04-.064-.024-.15-.005l.004-.005c-.018.02-.04.032-.065.03.023-.025-.04-.049-.012-.077-.085.043-.042.033-.098.114L7.633.317c-.02.033-.021.05-.064.059.035-.031-.027-.055.012-.095-.09-.078-.134.078-.175-.036-.042.1.077.055.055.076.019.033-.035.075-.063.064-.029-.002-.05-.127-.122-.124.007 0 .007-.007.015-.007-.028-.025-.053.034-.087-.007-.018.06-.043-.002-.049.073l.067-.017c-.038.02-.073.108-.135.065a.164.164 0 0 1 .035-.047C7.105.299 7.088.336 7.07.314c.006-.077.081-.017.121-.075-.019-.032-.076.055-.055-.028-.03.106-.073-.012-.121.068l.002-.046C7.01.24 6.993.262 6.98.261L7.004.2C6.965.252 6.928.157 6.89.184c.08 0 .018.055.052.088-.098.062-.057-.12-.167-.097.016-.007.056.027.033.049a.136.136 0 0 1-.062-.051c-.073.01.011.046-.02.075C6.7.192 6.69.27 6.657.288V.241c-.083-.03-.022.098-.097.062L6.591.24l-.039.017.009-.053c-.043.04-.057.029-.098.015.01.033-.006.084-.043.086-.024-.028.015-.044-.037-.038.011-.03.024-.066.047-.024.002-.015.012-.029.014-.045C6.417.166 6.376.19 6.357.192a.048.048 0 0 1 .02.01l-.076.065C6.29.249 6.299.235 6.308.222c-.015.005-.025.026-.049.03.006-.037.005-.077.038-.095L6.224.2C6.219.183 6.187.155 6.196.14c-.04-.022-.099.074-.152.044a.034.034 0 0 1-.019.02c-.05-.01-.095-.055-.154-.002L5.837.134c-.046.015.046.085-.031.11-.055.023-.02-.057-.04-.076-.027.034-.074.104-.124.049.016-.012.03-.002.045-.007m-.572.03c.011-.01.034-.04.041-.012-.013.054-.022.028-.041.013m-.87.111c.009-.015.021-.007.036.01a.038.038 0 0 1-.036-.01M1.823.676V.674c.025.018.017.013 0 .002m-.051-.02c-.005.006-.005.013-.003.02.003-.012.015-.012.028-.01-.003-.012-.01-.02-.025-.01M7.285.64l-.01-.012c.022-.015.016-.002.01.012" style="fill:#654e22;fill-opacity:1;fill-rule:nonzero;stroke:none;stroke-width:.869594"/><path d="M4.34.288c.004.007.004.017.006.025C4.35.306 4.35.295 4.34.288M6.04.185h.002l.002-.007zM2.564.26c.01.007.016.015.02.025 0-.012-.003-.02-.02-.025M1.497.734 1.53.722C1.514.724 1.508.715 1.5.707c0 .01.007.026-.003.027M1.211.446c-.005.005-.01 0-.015.007v.02c.022 0 .036-.017.015-.028M1.466.58C1.463.54 1.443.552 1.42.561h.005c-.007.055.017.037.041.017M1.414.562a.044.044 0 0 1-.02 0c-.004.023.007.006.02 0M1.704.68c-.01-.01-.007.051-.014.035-.012.05.074-.06.014-.034M1.456.499l.013-.04-.021-.01zM1.63.486 1.592.471c0 .01-.005.015-.01.018.022 0 .047.01.046-.002" style="fill:#654e22;fill-opacity:1;fill-rule:nonzero;stroke:none;stroke-width:.869594"/><path d="M1.583.489c-.012 0-.024 0-.03.007.006 0 .02-.002.03-.007M1.509.446l.026.002-.037-.015zM2.025.495l.04-.015C2.07.463 2.058.454 2.043.46c-.01.013-.024.018-.018.035M1.904.363c.01.01.01.02.017.036l.002-.06zM2.02.349c.004-.017.059-.048.008-.044-.004.017-.045.03-.007.044M2.616.426l.002.098.008-.1zM3.16.19c-.048-.025-.012.06-.055.031-.01.022.035.025.024.044.029-.025.044-.01.03-.075M3.129.265c-.005.002-.01.01-.015.015A.036.036 0 0 0 3.13.265M9.151.686l.03.02-.02-.032zM9.21.614l.007.062.018-.056c-.007.002-.02.007-.025-.005M5.027.113l-.003.015c.005.017.012.017.027.02zM5.448.215 5.442.16 5.435.158zM5.79.088c-.013-.002-.03.01-.045.007.032-.01.049.062.045-.007M5.33.484c-.015-.002-.01.036-.013.044.026-.01.013-.054.013-.044M5.59.397l-.004.017.039-.04zM5.832.402c-.021-.07-.088.01-.13-.014L5.695.373l-.02.054c.052-.007.12-.043.157-.024M5.958.554c-.007-.027.028-.023-.03-.01l.006.007.024.002M5.934.552c-.026.002.016.022 0 0M6.052.539l-.034.024c.006.015.036.02.025.031.035-.012.028-.028.008-.054M6.084.489l-.017.01c.002.007.007.01.017-.01M6.03.52 6.066.5c-.005-.013-.005-.034-.018.007.003-.02-.004-.001-.02.012M6.009.508C5.99.494 5.966.483 6 .461c-.064.007-.056.056.009.047M5.846.331l-.024-.02-.023.023c.011-.012.048.02.047-.002M6.26.578c.002-.015-.01-.04-.013-.058l-.025.017c.012.01.037.02.038.042" style="fill:#654e22;fill-opacity:1;fill-rule:nonzero;stroke:none;stroke-width:.869594"/><path d="m6.247.52.037-.024c-.033-.002-.039.007-.037.024M6.092.413 6.03.464l.073-.052zM6.401.583 6.38.617l.039-.051ZM6.495.579c-.017.027.021.047.003.065.026-.005.048-.029.068-.05-.02.013-.043.007-.071-.014M6.6.563a.179.179 0 0 0-.034.031A.101.101 0 0 0 6.6.563M6.347.504c.003.01.008.032.028.043L6.362.505h-.015M6.361.504a.257.257 0 0 0 .033.002L6.36.501M6.344.504h.003c0-.002-.002-.005-.003 0M6.188.452c.023-.023.068-.046.024-.083-.015.028.01.049-.024.083M6.327.452l-.04-.01c.001.012.008.027-.003.038zM6.327.452l.014.002.005-.017zM6.533.523c.018-.017.036-.02.058-.02A.17.17 0 0 0 6.523.49c-.003.012-.014.035.01.034M6.45.51l.003-.002C6.451.506 6.45.503 6.45.51M6.797.506A.04.04 0 0 0 6.794.5v.007zM6.519.48c-.017-.01-.027.002-.037.015.013-.002.027-.005.04-.005.003-.005.003-.01-.003-.007M6.658.545A.147.147 0 0 0 6.63.52c.008.012.026.034.03.025M6.46.52 6.455.52c.006.01.006.005.003-.002M6.46.52a.083.083 0 0 0 .022-.025.078.078 0 0 0-.028.012c.002.002.003.007.005.012M6.865.243c-.003.038-.049.072-.086.03-.039.028-.017.155.014.226.002-.018.003-.033.042-.054C6.822.425 6.75.394 6.783.36c.052-.017.042.015.067.036-.021-.049.066-.069.057-.14L6.86.282c0-.012.016-.028.003-.038M6.72.493l-.017.005c.019.007.032.022.055.053.027-.017.033-.032.035-.045l-.08-.005z" style="fill:#654e22;fill-opacity:1;fill-rule:nonzero;stroke:none;stroke-width:.869594"/><path d="M6.632.496c.013-.04.052-.058.03-.103-.047.002-.034.034-.062.051.075-.01-.023.022.032.048-.016.005-.029.007-.042.01a.224.224 0 0 1 .04.02C6.628.52 6.628.52 6.626.52V.519c-.003-.005-.004-.007 0-.005h.002c0-.006.002-.01.003-.015.022.01.003.012-.003.014l-.001.005V.52l.077-.022a.177.177 0 0 0-.073 0M6.255.28c.003.003.002.008.003.01.004-.004.007-.01-.003-.01M6.286.306c-.006.005-.01.023-.029.018-.015-.013 0-.02 0-.033-.011.01-.038.028-.005.05l.006-.006c.03.015.069.067.062.073a.34.34 0 0 0-.034-.102M6.461.39l.064-.019-.032-.036.001.022c-.036-.01-.029.017-.033.034M6.804.527l-.01.044.039-.061zM6.883.561 6.904.54 6.886.524zM11.53.138l.02-.01c-.009.002-.015.007-.02.01M11.396.132l-.003.02c.006-.01.008-.017.003-.02M8.904.557c.026.037.055.092.053.049L8.949.564a.045.045 0 0 1-.046-.007M10.29.334 10.282.32a1.17 1.17 0 0 1-.02.04l.028-.027M10.312.16l.035.029a.098.098 0 0 0-.035-.028M12.265.107l.023-.041c-.034-.001-.02.02-.023.041M7.728.524a.116.116 0 0 0 .058.026c-.028-.025-.05-.061-.058-.026M11.469.58c.011-.006.016-.014.016-.024-.012.007-.019.014-.016.025M7.853.551C7.85.546 7.845.544 7.84.541c-.018.005-.035.012-.056.01.021.017.045.03.068 0M14.928.192c.002.002.005.002.006.005 0-.005-.003-.005-.006-.005M15.696.63l-.032.001c.006.002.015.002.032-.002M7.216.548c-.017.002-.002.005 0 0M7.135.38c.003-.004.007-.01.007-.02-.001.01-.004.018-.007.02M8.031.294h.002c-.005-.007-.004-.007-.002 0M7.19.528c.007.005.014.01.022.012C7.21.538 7.202.533 7.19.528M7.194.548c-.006-.002-.01-.002-.015-.005-.003.007 0 .012.015.005M7.24.546A.082.082 0 0 1 7.214.54c.003.002.004.005.003.007L7.24.546M13.499.277c0 .002.003.002.003.002.018-.017.01-.014-.003-.002M9.365.131s0 .002-.002.002l.002.002zM9.428.101c-.028.052-.042.045-.062.034l.018.121z" style="fill:#654e22;fill-opacity:1;fill-rule:nonzero;stroke:none;stroke-width:.869594"/><path d="M11.852.132 11.81.094c.054-.061.092-.04.052-.093-.009.13-.171.01-.18.141l-.028-.028c.008.002.01-.005.018-.005-.055-.065-.044.094-.116.074-.025-.01-.042-.031-.024-.046l-.058.032c-.016-.002-.012-.026.005-.022l-.086.01V.155a.48.48 0 0 1-.054.064c-.022-.02.011-.015.005-.03l-.048.03c-.018-.034.022-.066.054-.06-.042-.132-.04.032-.134-.046l.045-.017C11.233.02 11.197.048 11.146 0c.013.025.1.12.048.15-.015-.01-.034-.014-.061.01 0-.046-.027-.035-.061-.034l.002-.06c-.036.017-.034.048-.056.075-.041-.007-.049-.055-.058-.095-.065-.012.045.077-.034.087-.053-.024-.093 0-.159.036-.038-.022.007-.037-.006-.056l-.034.05c-.008-.003-.006-.018-.005-.025-.029.017-.003.06-.049.077-.013.068-.09-.1-.147-.025-.014-.017.007-.038.003-.062-.077.05-.066.036-.13.103l-.052-.042c.038.047-.013.1-.058.145.014.022.026.043.034.052l-.07.032c-.01-.01-.002-.032.01-.057l-.014.015c-.024-.025-.01-.06.008-.093l.025.038a.228.228 0 0 0 .032-.114.04.04 0 0 1-.024.015c.006-.01.008-.017.006-.025-.002-.005-.01.007-.021.022L10.26.151l-.005.026-.09-.045c-.067.07-.126.17-.23.196.026-.05.006-.083.009-.142.027.064.082-.025.135-.012-.028-.007-.021-.036-.014-.046l-.098.056c.004-.05-.019-.037-.044-.058.018.098-.072.063-.112.092-.002-.033.008-.066.056-.057-.052-.073-.07.113-.121.05.012-.001.018.005.022-.013-.027.028-.094.002-.077-.024h.011C9.625.16 9.467.169 9.454.25c0-.01.012-.099.017-.115l-.143.273c.013-.07-.03-.239.034-.277-.018-.01-.04-.022-.08.002.013.01.03.102.012.109C9.25.162 9.262.198 9.206.13c.018.015-.005.126-.034.122.004-.017 0-.109.01-.12l-.076.107c.019-.02.005-.092-.01-.124.006.023-.065-.002-.085.007l.031.026C8.96.131 8.956.3 8.873.293 8.883.27 8.901.155 8.86.14c-.021.055-.092.265-.166.307L8.681.416 8.624.45c.037-.083.138-.257.193-.325C8.787.101 8.81.09 8.762.091c-.015-.03.026-.045.04-.047l-.108-.02c.003.066-.085.064-.081.118l.119-.065c.005.065-.071.183-.149.17C8.563.22 8.6.132 8.6.111c-.01.022-.074.04-.081.024L8.55.101c-.043-.025-.071.085-.123.022C8.411.118 8.377.04 8.373.077a.9.9 0 0 1 .008.36C8.375.43 8.29.363 8.27.327c-.029-.058.046-.137.022-.188 0 .017-.018.04-.025.046C8.25.17 8.276.13 8.235.137c-.008.066-.082-.007-.02.056-.04.017-.042-.015-.09-.012.015.042-.044.143-.084.161.003-.017-.007-.039-.01-.048-.082-.007-.125-.039-.2-.04-.008-.018-.044-.037-.028-.065-.011.013-.022.034-.045.035-.044-.058.052-.007.02-.076-.004.037-.063.051-.097.074.01.06.077.012.11-.01 0 .081-.06.166-.14.202-.064.02-.027-.053-.038-.042-.118-.017-.104.14-.202.08-.037-.053 0-.104-.007-.141.051-.017.078.034.113.033L7.475.319c.016-.017.05-.03.07-.015-.032-.048-.2-.012-.292-.057-.017.017-.045.033-.032.055l.03-.007c.024.042-.056.057-.02.077-.04.029-.084.074-.139.05l-.009-.06c.001.018.035.036.05.018-.023.025-.082-.082-.108-.005l.038.041c-.04.03-.09.092-.138.072.021.059.011-.005.044.062-.027-.085.125.005.079-.084.034.08.06.035.106.103-.002-.02-.017-.037.024-.026l.01-.018s.002 0 .003.002L7.188.525c.002-.002.003-.002 0 0a.101.101 0 0 1-.02-.03c.02-.044.085-.042.108-.065.023.01-.011.022.002.043L7.312.44c.002.044.062.073.005.098l.051.002c.03.025.07.035.098.017.023.01.061-.047.04-.015l.08-.025v.012c.08.007.166-.068.255.013.026-.01.055-.025.1-.01l.007.037c.035-.012.103.04.118 0 .035.103.167.026.227.045l.002-.049A.35.35 0 0 0 8.43.536L8.427.493c.045-.035.114.032.184.03-.005.017-.023.012-.036.002.083.099.18-.068.254.005.02-.015.032-.01.046.002-.002 0-.003 0-.005.002a.03.03 0 0 0 .008 0c.008.007.017.018.026.025-.008-.01-.015-.02-.022-.025A.163.163 0 0 0 8.941.52l.008.046.006-.001c.02.017.017-.022.006-.057a.096.096 0 0 0 .03-.027c.016.074.057-.025.08.056.015-.04.11-.028.123-.11 0 .013.007.018-.006.018.025.01.05.02.07-.002l.01.059.055-.08c.032.038.045.059.012.103.078-.067.062-.024.13-.092L9.46.471c.023-.001.062-.052.076-.02.05.073.259.015.393.084-.025-.113.061.052.068-.035.007.027.026.042.004.065.068-.025.102.044.15-.029.008.027-.015.04-.008.055.005-.005.022-.022.029-.007.007.017-.01.022-.022.034.07-.002.08-.085.086-.162.035.038.053.032.08-.017.01.025.032.052-.013.06.026.005.15.04.154-.022.007.014.034.005.04-.002.056.005.06.01.114.005l-.015-.01c.023-.074.047-.015.09-.025l-.002.007c.1.056.043-.025.14.038l-.004-.047c.011-.1.086.06.144.025l-.02-.027c.033-.033.085.137.116.15.007.01-.01.015-.02.02.081.06.011-.061.073-.074.01.033-.016.084.025.09.02.026.121-.104.177-.04-.012-.026-.025-.05.005-.07.044-.01.116.098.157.02.005.007.008.013.008.02.033-.02.108-.032.13-.075.027.16.208-.073.204.073l.103-.005-.003.015c.065.01.09-.024.113-.059.015.01.003.025.002.031.096.032.106.026.187-.046l.008.048c.022-.028.137.077.231.025a.038.038 0 0 1-.01.022c.107-.055.25.137.292-.037l.07-.04c-.089-.015.016-.076-.02-.106.036-.01.09.054.047.063l-.007-.01c-.018.09.111.035.108.096.177 0 .35.053.515.06l-.017-.07.058.004c.014.017.02.056-.022.052.02.04.07-.032.07-.046.082.03-.032.08-.007.083l.034-.005-.008-.01c.028-.028.031-.059.08-.054.032.014.016.044.028.046 0 .005.004.007.02.002l.073.007-.029-.056c.033-.027.069.005.036-.06.048.098.272.04.302.071.046-.04.09-.038.146-.032-.013-.012-.02-.074.027-.066-.02.129.087.058.124.151-.034-.062.136-.012.083-.1.04.012.002.047.032.079.096-.048.208.036.327.022.002-.017-.018-.043.008-.068l.06.086c.024-.01.024-.097.065-.038-.005-.015-.014-.036.001-.04.229.086.471-.06.703.1-.032-.034-.01-.037.014-.037-.016-.01.002-.042-.001-.066l.096.066c.02-.063.105-.002.116-.062l-.03.01c.041-.072-.055-.161-.047-.254-.048.08-.12-.124-.198-.007-.016-.02.015-.03.006-.05-.02.038-.043.046-.086.027l.005-.01c-.12.007-.171-.032-.307-.06l.01.045c-.03-.005-.035-.02-.049-.033-.035.068.082.005.05.081-.037-.093-.205-.005-.229-.11-.045-.003.011.052-.033.05l-.011-.028-.012.036C14.914.263 14.9.226 14.9.201c.007.002.02-.005.028-.007-.037-.035-.108.01-.121-.002l.044.018c-.124.024-.273-.015-.392.04l.009.022c-.09.038-.072-.025-.171-.01L14.3.257a.083.083 0 0 1-.073.028c.025-.024-.047-.05-.014-.077-.098.04-.049.033-.115.111l-.014-.036c-.022.032-.025.05-.075.058.042-.03-.03-.056.016-.095-.102-.08-.156.076-.2-.04-.05.1.088.057.06.078.023.032-.04.073-.072.063-.033-.002-.054-.128-.138-.128.008 0 .01-.005.018-.005-.031-.026-.063.033-.1-.01-.022.06-.049-.005-.057.072l.077-.017c-.044.02-.086.108-.157.063a.15.15 0 0 1 .042-.047c-.02-.022-.04.015-.062-.01.008-.076.094-.014.141-.072-.021-.033-.088.053-.063-.028-.036.104-.082-.015-.14.064l.004-.046c-.008.007-.027.028-.044.027l.031-.06c-.047.05-.087-.046-.132-.017.092 0 .02.055.059.09-.115.058-.064-.121-.19-.102.017-.005.063.028.036.05a.145.145 0 0 1-.07-.053c-.084.007.011.047-.024.074-.028-.056-.042.022-.08.04l.001-.047c-.096-.031-.027.097-.113.058L12.89.18l-.045.015.01-.053c-.05.039-.065.027-.112.013.01.032-.008.083-.05.084-.029-.028.017-.044-.043-.038.013-.029.03-.065.054-.022.003-.015.014-.03.017-.044-.03-.033-.078-.01-.1-.01.009.002.019.005.023.012L12.557.2c-.014-.017-.003-.031.008-.045-.017.005-.03.026-.056.03.008-.039.007-.077.043-.094l-.083.04c-.006-.018-.042-.047-.03-.06-.047-.024-.116.07-.176.04a.04.04 0 0 1-.023.02c-.057-.01-.107-.058-.176-.007l-.037-.069c-.054.015.05.087-.038.11-.064.02-.023-.058-.045-.077-.032.034-.088.102-.144.046.02-.012.034-.002.052-.007m-.657.017c.013-.01.039-.039.048-.012-.016.053-.027.027-.048.012m-1 .093c.01-.014.024-.007.04.01a.046.046 0 0 1-.04-.01M7.408.51c0-.001 0-.002.002-.002.027.017.018.01-.002.002M7.349.486c-.006.008-.006.013-.003.02.005-.012.018-.012.032-.01-.003-.012-.011-.02-.028-.012m6.329.102-.01-.012c.025-.012.017 0 .01.012" style="fill:#654e22;fill-opacity:1;fill-rule:nonzero;stroke:none;stroke-width:.869594"/><path d="M10.31.18a.079.079 0 0 1 .005.026c.005-.007.005-.017-.006-.025M12.261.115h.002c.002-.002.002-.005.003-.007zM8.27.115a.05.05 0 0 1 .023.025c0-.013-.005-.02-.023-.025M7.036.565l.038-.012c-.018.002-.025-.01-.034-.015 0 .01.008.027-.005.027M6.713.271c-.006.005-.011 0-.017.005v.022c.024 0 .04-.017.017-.028M7.004.41C7 .37 6.977.384 6.95.39h.005c-.01.055.019.038.048.02M6.945.392a.05.05 0 0 1-.025 0c-.003.022.01.005.025 0M7.274.517c-.012-.01-.008.05-.015.034-.015.05.084-.06.015-.034M6.993.329 7.01.291 6.985.28zM7.193.32 7.15.305c0 .007-.005.013-.012.015.026.002.055.012.054-.002M7.14.322c-.015 0-.028 0-.036.007.008 0 .025 0 .035-.007M7.055.278l.03.005-.042-.015zM7.647.338l.046-.012c.005-.018-.007-.027-.024-.02-.012.012-.03.017-.022.034M7.51.203c.012.01.013.02.02.038l.002-.06zM7.645.192c.005-.018.067-.047.01-.044-.006.018-.052.03-.01.044M8.326.281V.38L8.338.28zM8.955.057c-.055-.024-.014.06-.063.03-.013.023.04.026.026.045.034-.024.05-.01.037-.074M8.918.132c-.005.002-.01.01-.017.015.01-.005.015-.013.017-.015M11.1.021l-.003.015c.006.017.014.017.03.02zM11.582.133l-.006-.056-.008-.002zM11.977.013c-.016-.002-.036.01-.052.007.036-.01.056.063.052-.007" style="fill:#654e22;fill-opacity:1;fill-rule:nonzero;stroke:none;stroke-width:.869594"/></svg>